arm26_states
nRows=20
nColumns=17

# SIMM Motion File Header:
name arm26_states
datacolumns 17
datarows 20
otherdata 1
range 0.51062500000000022000 0.51537499999999969000
endheader
time	r_shoulder_elev	r_elbow_flex	r_shoulder_elev_u	r_elbow_flex_u	TRIlong.activation	TRIlong.fiber_length	TRIlat.activation	TRIlat.fiber_length	TRImed.activation	TRImed.fiber_length	BIClong.activation	BIClong.fiber_length	BICshort.activation	BICshort.fiber_length	BRA.activation	BRA.fiber_length
      0.51062500000000022000	      0.01744545077182442200	     43.01600735610234200000	     -0.35373177645840220000	    139.88143784455971000000	      0.18261830180505081000	      0.15202467143770504000	      0.63202437174040582000	      0.08531143301341860600	      0.64678075700510107000	      0.08048895269879455200	      0.97030830606745133000	      0.12857020748161702000	      0.84469542456001401000	      0.12816846527299172000	      0.54902977420633148000	      0.08238911197891132800
      0.51087500000000019000	      0.01734624199704792200	     43.05103098352140000000	     -0.44164252072310461000	    140.31420542783417000000	      0.18185977748474319000	      0.15204265478853465000	      0.62855390730195249000	      0.08532885609045112700	      0.64321835277000916000	      0.08050666440698280000	      0.97002593111380320000	      0.12854614566249459000	      0.84501116278784838000	      0.12814513300895880000	      0.54769900920697734000	      0.08238336893988712500
      0.51112500000000016000	      0.01722376224782725200	     43.08616780443672700000	     -0.53995609007446776000	    140.78710592168707000000	      0.18123238411818438000	      0.15206043075938658000	      0.62526082835891150000	      0.08534654369109910500	      0.63983390686209407000	      0.08052457777652569100	      0.96958955276573400000	      0.12852219650034971000	      0.84494670638512404000	      0.12812190092588815000	      0.54632004907646847000	      0.08237757778063775600
      0.51137500000000014000	      0.01707537555203498400	     43.12142791848199900000	     -0.64892671392137657000	    141.30057795040142000000	      0.18073530469273855000	      0.15207796027571452000	      0.62214402970929195000	      0.08536445199753266200	      0.63662631051033103000	      0.08054265132659647900	      0.96900013054283551000	      0.12849836972254322000	      0.84473623926955643000	      0.12809878687834189000	      0.54489319409502102000	      0.08237174369000840900
      0.51162500000000011000	      0.01689840255971419800	     43.15682146814931000000	     -0.76864971168702034000	    141.85453496266408000000	      0.18036772728617473000	      0.15209521190412911000	      0.61920241303707413000	      0.08538253924349752100	      0.63359446185190349000	      0.08056084646376346400	      0.96825861798640367000	      0.12847467464477058000	      0.84438268185802767000	      0.12807579900051419000	      0.54341874267195245000	      0.08236587128183503500
      0.51187500000000008000	      0.01669015871314131700	     43.19235851325436200000	     -0.89907314336439825000	    142.44840846157373000000	      0.18012884503495100000	      0.15211216071926489000	      0.61643488686930670000	      0.08540076603826057800	      0.63073726588916179000	      0.08057912763577693100	      0.96736596269668640000	      0.12845112018346722000	      0.84388692567596724000	      0.12805294485565200000	      0.54189699135733826000	      0.08235996463386861800
      0.51212500000000005000	      0.01644798972752054700	     43.22804891531677600000	     -1.04000858396707210000	    143.08118705308954000000	      0.18001785610269636000	      0.15212878729521881000	      0.61384036653347063000	      0.08541909559492952300	      0.62805363444684903000	      0.08059746239254483900	      0.96632310636989938000	      0.12842771486919324000	      0.84324985669414720000	      0.12803023146445552000	      0.54032823485359582000	      0.08235402732680600900
      0.51237500000000002000	      0.01616930434301533400	     43.26390223166667700000	     -1.19114208506897450000	    143.75145487114500000000	      0.18009849002870948000	      0.15214507162722557000	      0.61141777411510922000	      0.08543749387009125200	      0.62554248612959473000	      0.08061582136872094700	      0.96513098483501136000	      0.12840446686084656000	      0.84247235536329035000	      0.12800766533349292000	      0.53871276602699636000	      0.08234806248309263500
      0.51262500000000000000	      0.01585160479649480200	     43.29992761343395100000	     -1.35203905476079630000	    144.45735541430889000000	      0.18066202639552018000	      0.15216088099246203000	      0.60916603841572192000	      0.08545592962457783400	      0.62320274627967231000	      0.08063417820290007300	      0.96379052809029975000	      0.12838138396057713000	      0.84155529664846296000	      0.12798525248427953000	      0.53705087591910505000	      0.08234207280523647700
      0.51287499999999997000	      0.01549251735385187200	     43.33613367887124900000	     -1.52214288635091630000	    145.19647839996338000000	      0.18171256303514063000	      0.15217604351722150000	      0.60708409491092052000	      0.08547437441617965200	      0.62103334693502021000	      0.08065250940723706100	      0.96230266033967904000	      0.12835847362949673000	      0.84049955006325339000	      0.12796299848317999000	      0.53534285375814994000	      0.08233606061374912400
      0.51312499999999994000	      0.01508982135120182800	     43.37252838044632600000	     -1.70078844267217750000	    145.96592598717095000000	      0.18323807586804891000	      0.15219043918189648000	      0.60517088570884592000	      0.08549280253547043900	      0.61903322678752437000	      0.08067079419983841400	      0.96066830002880266000	      0.12833574300438882000	      0.83930597970373733000	      0.12794090847247611000	      0.53358898697031987000	      0.08233002788501156400
      0.51337499999999991000	      0.01464147432069779300	     43.40911889545233700000	     -1.88721777812347420000	    146.76240947067043000000	      0.18522683769030285000	      0.15220399150753725000	      0.60342535950884424000	      0.08551119089690897800	      0.61720133114156106000	      0.08068901431199343400	      0.95888835988093957000	      0.12831319891526391000	      0.83797544428223181000	      0.12791898720234032000	      0.53178956119099197000	      0.08232397628881205100
      0.51362499999999989000	      0.01414563339689538400	     43.44591153880564600000	     -2.08059423152602200000	    147.58233091360546000000	      0.18766741084365593000	      0.15221665876581664000	      0.60184647156040005000	      0.08552951889707191600	      0.61553661187279751000	      0.08070715378102350000	      0.95696374693262809000	      0.12829084790345446000	      0.83650879716083881000	      0.12789723906320799000	      0.52994486027588972000	      0.08231790722509242700
      0.51387499999999986000	      0.01360067340184465500	     43.48291169444503600000	     -2.28001491791922280000	    148.42185056346952000000	      0.19054864006664862000	      0.15222842588263338000	      0.60043318362232578000	      0.08554776825046757300	      0.61403802738724933000	      0.08072519873743941300	      0.95489536256910679000	      0.12826869624000528000	      0.83490688638477950000	      0.12787566811815321000	      0.52805516631217064000	      0.08231182185956316400
      0.51412499999999983000	      0.01300520199495054500	     43.52012376198736400000	     -2.48452174464114560000	    149.27694182871127000000	      0.19385964552220689000	      0.15223929754013088000	      0.59918446392220548000	      0.08556592281181964200	      0.61270454258059315000	      0.08074313719316880700	      0.95268410255952507000	      0.12824674994416091000	      0.83317055471552171000	      0.12785427813495806000	      0.52612075962944571000	      0.08230572115793966000
      0.51437499999999980000	      0.01235807223610147500	     43.55755111578998400000	     -2.69311111777283420000	    150.14343590369123000000	      0.19758981599738992000	      0.15224929257552747000	      0.59809928711609073000	      0.08558396839210906400	      0.61153512879773297000	      0.08076095883588746400	      0.95033085709193432000	      0.12822501480179521000	      0.83130063966369971000	      0.12783307261764112000	      0.52414191881072947000	      0.08229960591863375000
      0.51462499999999978000	      0.01165839286825855500	     43.59519607408416400000	     -2.90474250709834790000	    151.01705802074193000000	      0.20172880227103673000	      0.15225843957633498000	      0.59717663424844836000	      0.08560189257414460600	      0.61052876379261789000	      0.08077865483301653600	      0.94783651080806086000	      0.12820349638366318000	      0.82929797352183010000	      0.12781205483727404000	      0.52211892070332266000	      0.08229347680379937900
      0.51487499999999975000	      0.01090553658531334300	     43.63305987630546000000	     -3.11834602293089750000	    151.89345703191356000000	      0.20626651064516596000	      0.15226677349589360000	      0.59641549271235694000	      0.08561968453206490700	      0.60968443168831066000	      0.08079621764773839400	      0.94520194283786241000	      0.12818220006338396000	      0.82716338339682305000	      0.12779122786196465000	      0.52005204042962605000	      0.08228733436868179700
      0.51512499999999972000	      0.01009914651515758000	     43.67114266713393500000	     -3.33282913808995130000	    152.76822971237979000000	      0.21119309663608629000	      0.15227433310118160000	      0.59581485620995223000	      0.08563733485799073000	      0.60900112293730480000	      0.08081364086842240900	      0.94242802683386928000	      0.12816113103508603000	      0.82489769124229151000	      0.12777059458592419000	      0.51794155139788789000	      0.08228117908925694500
      0.51537499999999969000	      0.00923914111710491020	     43.70944348606844400000	     -3.54708266845518240000	    153.63694089216810000000	      0.21649895882127360000	      0.15228115908122683000	      0.59537372471311811000	      0.08565483539805368600	      0.60847783428208890000	      0.08083091905211063600	      0.93951563100531155000	      0.12814029433066396000	      0.82250171389065863000	      0.12775015775756571000	      0.51578772531288364000	      0.08227501138817536200
